HIERARCHY
ROOT hip
{
  OFFSET 0 0 0
  CHANNELS 6 Xposition Yposition Zposition Zrotation Yrotation Xrotation
  JOINT abdomen
  {
    OFFSET 0 20.6881 -0.73152
    CHANNELS 3 Zrotation Xrotation Yrotation
    JOINT chest
    {
      OFFSET 0 11.7043 -0.48768
      CHANNELS 3 Zrotation Xrotation Yrotation
      JOINT neck
      {
        OFFSET 0 22.1894 -2.19456
        CHANNELS 3 Zrotation Xrotation Yrotation
        JOINT head
        {
          OFFSET -0.24384 7.07133 1.2192
          CHANNELS 3 Zrotation Xrotation Yrotation
          JOINT leftEye
          {
            OFFSET 4.14528 8.04674 8.04672
            CHANNELS 3 Zrotation Xrotation Yrotation
            End Site
            {
              OFFSET 1 0 0
            }
          }
          JOINT rightEye
          {
            OFFSET -3.6576 8.04674 8.04672
            CHANNELS 3 Zrotation Xrotation Yrotation
            End Site
            {
              OFFSET 1 0 0
            }
          }
        }
      }
      JOINT rCollar
      {
        OFFSET -2.68224 19.2634 -4.8768
        CHANNELS 3 Zrotation Xrotation Yrotation
        JOINT rShldr
        {
          OFFSET -8.77824 -1.95073 1.46304
          CHANNELS 3 Zrotation Xrotation Yrotation
          JOINT rForeArm
          {
            OFFSET -28.1742 -1.7115 0.48768
            CHANNELS 3 Zrotation Xrotation Yrotation
            JOINT rHand
            {
              OFFSET -22.5879 0.773209 7.07136
              CHANNELS 3 Zrotation Xrotation Yrotation
              JOINT rThumb1
              {
                OFFSET -1.2192 -0.487915 3.41376
                CHANNELS 3 Zrotation Xrotation Yrotation
                JOINT rThumb2
                {
                  OFFSET -3.37035 -0.52449 3.41376
                  CHANNELS 3 Zrotation Xrotation Yrotation
                  End Site
                  {
                    OFFSET -1.78271 -1.18214 1.43049
                  }
                }
              }
              JOINT rIndex1
              {
                OFFSET -7.75947 0.938293 5.60832
                CHANNELS 3 Zrotation Xrotation Yrotation
                JOINT rIndex2
                {
                  OFFSET -2.54057 -0.884171 1.56538
                  CHANNELS 3 Zrotation Xrotation Yrotation
                  End Site
                  {
                    OFFSET -1.62519 -0.234802 1.16502
                  }
                }
              }
              JOINT rMid1
              {
                OFFSET -8.24714 1.18213 3.41376
                CHANNELS 3 Zrotation Xrotation Yrotation
                JOINT rMid2
                {
                  OFFSET -3.10165 -0.590103 1.0647
                  CHANNELS 3 Zrotation Xrotation Yrotation
                  End Site
                  {
                    OFFSET -2.48547 -0.328903 0.83742
                  }
                }
              }
              JOINT rRing1
              {
                OFFSET -8.82822 0.546677 1.51678
                CHANNELS 3 Zrotation Xrotation Yrotation
                JOINT rRing2
                {
                  OFFSET -2.60934 -0.819778 -0.0198488
                  CHANNELS 3 Zrotation Xrotation Yrotation
                  End Site
                  {
                    OFFSET -2.33842 -0.294052 0.168128
                  }
                }
              }
              JOINT rPinky1
              {
                OFFSET -8.27202 -0.0477905 -0.4584
                CHANNELS 3 Zrotation Xrotation Yrotation
                JOINT rPinky2
                {
                  OFFSET -1.82734 -0.647385 -0.700984
                  CHANNELS 3 Zrotation Xrotation Yrotation
                  End Site
                  {
                    OFFSET -1.69225 -0.51767 -0.607171
                  }
                }
              }
            }
          }
        }
      }
      JOINT lCollar
      {
        OFFSET 2.68224 19.2634 -4.8768
        CHANNELS 3 Zrotation Xrotation Yrotation
        JOINT lShldr
        {
          OFFSET 8.77824 -1.95073 1.46304
          CHANNELS 3 Zrotation Xrotation Yrotation
          JOINT lForeArm
          {
            OFFSET 28.1742 -1.7115 0.48768
            CHANNELS 3 Zrotation Xrotation Yrotation
            JOINT lHand
            {
              OFFSET 22.5879 0.773209 7.07136
              CHANNELS 3 Zrotation Xrotation Yrotation
              JOINT lThumb1
              {
                OFFSET 1.2192 -0.487915 3.41376
                CHANNELS 3 Zrotation Xrotation Yrotation
                JOINT lThumb2
                {
                  OFFSET 3.37035 -0.52449 3.41376
                  CHANNELS 3 Zrotation Xrotation Yrotation
                  End Site
                  {
                    OFFSET 1.78271 -1.18214 1.43049
                  }
                }
              }
              JOINT lIndex1
              {
                OFFSET 7.75947 0.938293 5.60832
                CHANNELS 3 Zrotation Xrotation Yrotation
                JOINT lIndex2
                {
                  OFFSET 2.54057 -0.884171 1.56538
                  CHANNELS 3 Zrotation Xrotation Yrotation
                  End Site
                  {
                    OFFSET 1.62519 -0.234802 1.16502
                  }
                }
              }
              JOINT lMid1
              {
                OFFSET 8.24714 1.18213 3.41376
                CHANNELS 3 Zrotation Xrotation Yrotation
                JOINT lMid2
                {
                  OFFSET 3.10165 -0.590103 1.0647
                  CHANNELS 3 Zrotation Xrotation Yrotation
                  End Site
                  {
                    OFFSET 2.48547 -0.328903 0.83742
                  }
                }
              }
              JOINT lRing1
              {
                OFFSET 8.82822 0.546677 1.51678
                CHANNELS 3 Zrotation Xrotation Yrotation
                JOINT lRing2
                {
                  OFFSET 2.60934 -0.819778 -0.0198488
                  CHANNELS 3 Zrotation Xrotation Yrotation
                  End Site
                  {
                    OFFSET 2.33842 -0.294052 0.168128
                  }
                }
              }
              JOINT lPinky1
              {
                OFFSET 8.27202 -0.0477905 -0.4584
                CHANNELS 3 Zrotation Xrotation Yrotation
                JOINT lPinky2
                {
                  OFFSET 1.82734 -0.647385 -0.700984
                  CHANNELS 3 Zrotation Xrotation Yrotation
                  End Site
                  {
                    OFFSET 1.69225 -0.51767 -0.607171
                  }
                }
              }
            }
          }
        }
      }
    }
  }
  JOINT rButtock
  {
    OFFSET -8.77824 4.35084 1.2192
    CHANNELS 3 Zrotation Xrotation Yrotation
    JOINT rThigh
    {
      OFFSET 0 -1.70687 -2.19456
      CHANNELS 3 Zrotation Xrotation Yrotation
      JOINT rShin
      {
        OFFSET 0 -36.8199 0.73152
        CHANNELS 3 Zrotation Xrotation Yrotation
        JOINT rFoot
        {
          OFFSET 0.73152 -45.1104 -5.12064
          CHANNELS 3 Zrotation Xrotation Yrotation
          End Site
          {
            OFFSET -1.1221 -3.69964 12.103
          }
        }
      }
    }
  }
  JOINT lButtock
  {
    OFFSET 8.77824 4.35084 1.2192
    CHANNELS 3 Zrotation Xrotation Yrotation
    JOINT lThigh
    {
      OFFSET 0 -1.70687 -2.19456
      CHANNELS 3 Zrotation Xrotation Yrotation
      JOINT lShin
      {
        OFFSET 0 -36.8199 0.73152
        CHANNELS 3 Zrotation Xrotation Yrotation
        JOINT lFoot
        {
          OFFSET -0.73152 -45.1104 -5.12064
          CHANNELS 3 Zrotation Xrotation Yrotation
          End Site
          {
            OFFSET 1.1221 -3.69964 12.103
          }
        }
      }
    }
  }
}
MOTION
Frames:	6
Frame Time:	0.00833333
-1.28936 85.1099 56.0446 173.103 0.5339 173.897 -5.04638 8.37657 -10.5606 10.3816 -5.49081 -2.47053 14.8323 2.07946 5.4506 -19.0896 -12.1545 5.35512 -0.0 0.0 0.0 -0.0 0.0 0.0 -9.36567e-14 -1.25628e-13 5.56597e-14 75.4487 -8.04905 -13.8846 -10.1095 -4.2081 18.0069 -0.00131079 1.03374 0.145299 8.72699e-10 6.93714e-10 1.12555e-09 1.50933e-09 1.20215e-09 1.94505e-09 8.72701e-10 6.9372e-10 1.12553e-09 7.73091 5.47488 0.417314 8.72701e-10 6.93717e-10 1.12554e-09 2.90554 0.965183 0.102902 8.72706e-10 6.93718e-10 1.12554e-09 10.2786 0.731801 0.0259123 8.72698e-10 6.93719e-10 1.12554e-09 2.22167 -0.733487 -0.20892 -9.36046e-14 -1.25635e-13 5.561e-14 -63.8226 30.6283 -13.6773 19.0397 -11.8499 -36.3967 0.169344 -11.6478 1.66015 -3.87912e-10 -6.05481e-10 3.43086e-10 -6.76057e-10 -1.06757e-09 5.91551e-10 -3.87912e-10 -6.05478e-10 3.43096e-10 -7.73091 5.47488 -0.417314 -3.8791e-10 -6.05476e-10 3.43093e-10 -2.90554 0.965183 -0.102902 -3.87915e-10 -6.05475e-10 3.4309e-10 -10.2786 0.731801 -0.0259123 -3.87911e-10 -6.05473e-10 3.43086e-10 -2.22167 -0.733487 0.20892 -2.03217e-16 0.0 -3.88251e-19 -30.7186 -60.6263 -22.5446 -0.496208 44.3381 0.5022 2.46131 25.4325 -9.09089 2.03217e-16 0.0 3.88251e-19 -10.7127 15.6487 -1.32206 -0.0636228 9.19293 -0.785367 2.4316 -5.41203 15.3151
-1.15867 84.9582 55.532 173.187 0.2909 174.223 -4.86109 8.12693 -11.1246 10.7412 -5.33125 -2.67017 14.2712 1.8878 5.6792 -18.8237 -12.2129 5.94552 -0.0 0.0 0.0 -0.0 0.0 0.0 -1.98598e-14 -5.65186e-14 2.39792e-14 75.2153 -6.96218 -13.446 -10.1822 -4.25235 18.1442 -0.000347442 0.472561 0.0664311 7.64497e-11 1.9558e-10 9.92664e-10 1.33875e-10 3.39587e-10 1.71566e-09 7.64517e-11 1.95584e-10 9.92649e-10 7.73091 5.47488 0.417314 7.64521e-11 1.95582e-10 9.92659e-10 2.90554 0.965183 0.102902 7.64579e-11 1.95582e-10 9.92658e-10 10.2786 0.731801 0.0259123 7.6448e-11 1.95583e-10 9.9266e-10 2.22167 -0.733487 -0.20892 -1.98363e-14 -5.65155e-14 2.39458e-14 -64.7559 30.4719 -13.2402 19.0413 -11.8517 -36.4003 0.1493 -10.9725 1.56129 -8.37079e-10 -2.13434e-09 1.5043e-10 -1.45084e-09 -3.71273e-09 2.55302e-10 -8.3708e-10 -2.13434e-09 1.50437e-10 -7.73091 5.47488 -0.417314 -8.37078e-10 -2.13433e-09 1.50437e-10 -2.90554 0.965183 -0.102902 -8.37083e-10 -2.13434e-09 1.50433e-10 -10.2786 0.731801 -0.0259123 -8.37077e-10 -2.13434e-09 1.50431e-10 -2.22167 -0.733487 0.20892 -2.03217e-16 0.0 -3.88251e-19 -30.4904 -60.2544 -22.3091 -0.507571 44.7077 0.504182 2.57511 26.18 -9.08964 2.03217e-16 0.0 3.88251e-19 -10.5155 15.2035 -1.57925 -0.0620291 10.1229 -0.803284 2.58385 -5.80098 15.466
-1.03268 84.807 55.0115 173.236 0.0522 174.537 -4.64855 7.90439 -11.939 11.2836 -5.09288 -2.96056 13.4392 1.62154 6.01987 -18.436 -12.2813 6.83234 -0.0 0.0 0.0 -0.0 0.0 0.0 1.11129e-13 3.79571e-14 -2.46369e-14 74.7338 -5.5444 -12.783 -10.2262 -4.27949 18.227 5.99558e-05 -0.0672551 -0.00943901 -1.2553e-09 -5.74459e-10 7.35122e-10 -2.16668e-09 -9.9366e-10 1.27089e-09 -1.2553e-09 -5.74458e-10 7.3511e-10 7.73091 5.47488 0.417314 -1.2553e-09 -5.7446e-10 7.3512e-10 2.90554 0.965183 0.102902 -1.25529e-09 -5.7446e-10 7.35118e-10 10.2786 0.731801 0.0259123 -1.2553e-09 -5.74459e-10 7.35123e-10 2.22167 -0.733487 -0.20892 1.11119e-13 3.79783e-14 -2.46617e-14 -66.0143 29.9152 -12.6525 19.0461 -11.8572 -36.4114 0.128842 -10.2196 1.45168 -1.50108e-09 -4.43525e-09 -1.36824e-10 -2.59576e-09 -7.69241e-09 -2.46057e-10 -1.50108e-09 -4.43525e-09 -1.36819e-10 -7.73091 5.47488 -0.417314 -1.50108e-09 -4.43522e-09 -1.36818e-10 -2.90554 0.965183 -0.102902 -1.50108e-09 -4.43525e-09 -1.36822e-10 -10.2786 0.731801 -0.0259123 -1.50107e-09 -4.43525e-09 -1.36822e-10 -2.22167 -0.733487 0.20892 -2.03217e-16 0.0 -3.88251e-19 -30.2039 -59.8236 -22.0008 -0.517546 45.0124 0.504599 2.73147 27.0663 -9.14693 2.03217e-16 0.0 3.88251e-19 -10.3373 14.8527 -1.83032 -0.0614776 10.8902 -0.819886 2.70164 -6.10633 15.5847
-0.905643 84.658 54.4762 173.267 -0.1688 174.826 -4.46476 7.68497 -12.7418 11.8241 -4.84919 -3.24861 12.5959 1.34901 6.36046 -18.0338 -12.3457 7.72373 -0.0 0.0 0.0 -0.0 0.0 0.0 2.40975e-13 1.1822e-13 -7.00662e-14 74.2103 -4.11257 -12.1153 -10.262 -4.30192 18.2941 -0.000245478 -0.574458 -0.080734 -2.52917e-09 -1.31364e-09 5.0281e-10 -4.36732e-09 -2.27339e-09 8.69663e-10 -2.52917e-09 -1.31364e-09 5.02801e-10 7.73091 5.47488 0.417314 -2.52917e-09 -1.31364e-09 5.02811e-10 2.90554 0.965183 0.102902 -2.52916e-09 -1.31364e-09 5.02809e-10 10.2786 0.731801 0.0259123 -2.52918e-09 -1.31364e-09 5.02816e-10 2.22167 -0.733487 -0.20892 2.40932e-13 1.18259e-13 -7.00949e-14 -67.2875 29.3211 -12.0315 19.0509 -11.8628 -36.4225 0.110502 -9.46577 1.34256 -2.10571e-09 -6.545e-09 -4.05394e-10 -3.6381e-09 -1.13407e-08 -7.14691e-10 -2.10571e-09 -6.545e-09 -4.0539e-10 -7.73091 5.47488 -0.417314 -2.10571e-09 -6.54496e-09 -4.05387e-10 -2.90554 0.965183 -0.102902 -2.10572e-09 -6.545e-09 -4.05391e-10 -10.2786 0.731801 -0.0259123 -2.1057e-09 -6.545e-09 -4.0539e-10 -2.22167 -0.733487 0.20892 -2.03217e-16 0.0 -3.88251e-19 -29.843 -59.3371 -21.601 -0.525998 45.2683 0.505547 2.88387 27.9626 -9.18511 2.03217e-16 0.0 3.88251e-19 -10.1731 14.5652 -2.04571 -0.0614253 11.5616 -0.835017 2.79637 -6.36604 15.6596
-0.773887 84.509 53.9333 173.289 -0.3713 175.106 -4.36317 7.44609 -13.2718 12.1754 -4.67364 -3.4414 11.9974 1.13823 6.58881 -17.7269 -12.3954 8.32739 -0.0 0.0 0.0 -0.0 0.0 0.0 3.1134e-13 1.44691e-13 -9.21864e-14 73.8854 -2.992 -11.6524 -10.31 -4.33195 18.3842 -0.0013211 -1.0378 -0.145869 -3.15179e-09 -1.71919e-09 4.45615e-10 -5.44303e-09 -2.97541e-09 7.7088e-10 -3.15179e-09 -1.71919e-09 4.45608e-10 7.73091 5.47488 0.417314 -3.15179e-09 -1.71919e-09 4.45618e-10 2.90554 0.965183 0.102902 -3.15178e-09 -1.71919e-09 4.45615e-10 10.2786 0.731801 0.0259123 -3.15179e-09 -1.71919e-09 4.45624e-10 2.22167 -0.733487 -0.20892 3.11273e-13 1.44739e-13 -9.22361e-14 -68.2864 29.0572 -11.4817 19.0525 -11.8647 -36.4264 0.095656 -8.78755 1.24488 -2.37677e-09 -7.50039e-09 -5.41995e-10 -4.10511e-09 -1.29918e-08 -9.52766e-10 -2.37678e-09 -7.50039e-09 -5.41992e-10 -7.73091 5.47488 -0.417314 -2.37677e-09 -7.50034e-09 -5.41989e-10 -2.90554 0.965183 -0.102902 -2.37678e-09 -7.50039e-09 -5.41993e-10 -10.2786 0.731801 -0.0259123 -2.37677e-09 -7.50039e-09 -5.41992e-10 -2.22167 -0.733487 0.20892 -2.03217e-16 0.0 -3.88251e-19 -29.3937 -58.7976 -21.0927 -0.532847 45.4916 0.509166 2.98016 28.7411 -9.12271 2.03217e-16 0.0 3.88251e-19 -10.0184 14.31 -2.19583 -0.0612443 12.204 -0.848589 2.87966 -6.61801 15.6799
-0.639198 84.3613 53.3734 173.289 -0.5411 175.362 -4.37205 7.18528 -13.4256 12.2651 -4.5961 -3.50168 11.7333 1.01304 6.65819 -17.5547 -12.4234 8.5267 -0.0 0.0 0.0 -0.0 0.0 0.0 2.92347e-13 8.02678e-14 -8.11177e-14 73.8748 -2.30139 -11.4719 -10.383 -4.37763 18.5216 -0.00276607 -1.4788 -0.207872 -2.78731e-09 -1.67989e-09 6.84956e-10 -4.81367e-09 -2.90707e-09 1.18415e-09 -2.78731e-09 -1.6799e-09 6.84951e-10 7.73091 5.47488 0.417314 -2.78731e-09 -1.6799e-09 6.84959e-10 2.90554 0.965183 0.102902 -2.7873e-09 -1.6799e-09 6.84957e-10 10.2786 0.731801 0.0259123 -2.78732e-09 -1.6799e-09 6.84967e-10 2.22167 -0.733487 -0.20892 2.92265e-13 8.03122e-14 -8.12167e-14 -68.9181 29.2696 -11.0304 19.0534 -11.8657 -36.4285 0.0829664 -8.18077 1.15774 -2.15256e-09 -6.73734e-09 -4.87139e-10 -3.71797e-09 -1.16698e-08 -8.56259e-10 -2.15257e-09 -6.73734e-09 -4.87135e-10 -7.73091 5.47488 -0.417314 -2.15256e-09 -6.73729e-09 -4.87133e-10 -2.90554 0.965183 -0.102902 -2.15257e-09 -6.73734e-09 -4.87137e-10 -10.2786 0.731801 -0.0259123 -2.15256e-09 -6.73734e-09 -4.87137e-10 -2.22167 -0.733487 0.20892 -2.03217e-16 0.0 -3.88251e-19 -28.8607 -58.1983 -20.4662 -0.537629 45.6792 0.517571 2.97874 29.3623 -8.87656 2.03217e-16 0.0 3.88251e-19 -9.88314 14.1028 -2.25558 -0.0610808 12.8035 -0.860453 2.94814 -6.86418 15.6306
